<svg xmlns="http://www.w3.org/2000/svg" viewBox="0 0 1200 675" role="img" aria-labelledby="title desc">
  <title id="title">Pharos social preview</title>
  <desc id="desc">Private medication interaction AI running on-device with QVAC.</desc>
  <rect width="1200" height="675" fill="#06120f"/>
  <rect x="44" y="44" width="1112" height="587" rx="34" fill="#0b1f1a" stroke="#1d4f42" stroke-width="2"/>
  <g transform="translate(88 86)">
    <rect width="82" height="82" rx="22" fill="#0a1612"/>
    <circle cx="41" cy="39" r="25" fill="#3ddc97"/>
    <circle cx="41" cy="39" r="15" fill="#06120f"/>
    <path d="m33 40 6 6 13-17" fill="none" stroke="#d6ff76" stroke-width="7" stroke-linecap="round" stroke-linejoin="round"/>
    <path d="M62 16 73 7l-2 14 9 7-14 1-8 11-2-14-11-5 13-5Z" fill="#d6ff76"/>
  </g>
  <text x="196" y="137" fill="#ecfff8" font-family="Inter, Arial, sans-serif" font-size="44" font-weight="800">Pharos</text>
  <text x="88" y="242" fill="#3ddc97" font-family="Inter, Arial, sans-serif" font-size="22" font-weight="800" letter-spacing="5">QVAC HACKATHON · S25 VALIDATED</text>
  <text x="88" y="334" fill="#f4fffb" font-family="Inter, Arial, sans-serif" font-size="64" font-weight="900">Medication warnings</text>
  <text x="88" y="407" fill="#f4fffb" font-family="Inter, Arial, sans-serif" font-size="64" font-weight="900">that stay on-device.</text>
  <text x="88" y="492" fill="#b7d8cf" font-family="Inter, Arial, sans-serif" font-size="28">Private OCR → DDInter → MedPsy explanation.</text>
  <g transform="translate(88 548)">
    <rect width="222" height="48" rx="24" fill="#11342b" stroke="#2e7c68"/>
    <text x="24" y="32" fill="#7dffc5" font-family="Inter, Arial, sans-serif" font-size="19" font-weight="800">Final APK released</text>
    <rect x="246" width="180" height="48" rx="24" fill="#11342b" stroke="#2e7c68"/>
    <text x="270" y="32" fill="#7dffc5" font-family="Inter, Arial, sans-serif" font-size="19" font-weight="800">38/38 checks</text>
    <rect x="450" width="206" height="48" rx="24" fill="#11342b" stroke="#2e7c68"/>
    <text x="474" y="32" fill="#7dffc5" font-family="Inter, Arial, sans-serif" font-size="19" font-weight="800">QVAC SDK 0.12.2</text>
  </g>
  <g transform="translate(908 118)">
    <rect width="190" height="440" rx="38" fill="#ecfff8"/>
    <rect x="15" y="36" width="160" height="368" rx="18" fill="#f8fffc"/>
    <rect x="30" y="72" width="130" height="70" rx="14" fill="#fff2ef" stroke="#be2a1e"/>
    <text x="48" y="116" fill="#be2a1e" font-family="Inter, Arial, sans-serif" font-size="24" font-weight="900">Major</text>
    <text x="30" y="190" fill="#06120f" font-family="Inter, Arial, sans-serif" font-size="18" font-weight="900">Ciprofloxacin</text>
    <text x="30" y="223" fill="#5f706b" font-family="Inter, Arial, sans-serif" font-size="18">× Warfarin</text>
    <rect x="30" y="268" width="130" height="72" rx="12" fill="#edf8f3" stroke="#d8e8e1"/>
    <text x="44" y="301" fill="#06120f" font-family="Inter, Arial, sans-serif" font-size="14" font-weight="800">DDInter 2.0</text>
    <text x="44" y="326" fill="#6c7c77" font-family="Inter, Arial, sans-serif" font-size="13">Grounded source</text>
  </g>
</svg>
