<svg xmlns="http://www.w3.org/2000/svg" viewBox="0 0 96 96" role="img" aria-labelledby="title desc">
  <title id="title">Pharos mark</title>
  <desc id="desc">A medication safety beacon inside a rounded square.</desc>
  <rect width="96" height="96" rx="24" fill="#06120f"/>
  <path d="M48 16c-16.6 0-30 13.4-30 30 0 14.9 10.8 27.2 25 29.6V84h10v-8.4c14.2-2.4 25-14.7 25-29.6 0-16.6-13.4-30-30-30Zm0 50c-11 0-20-9-20-20s9-20 20-20 20 9 20 20-9 20-20 20Z" fill="#3ddc97"/>
  <path d="m39 47 6 6 14-18" fill="none" stroke="#06120f" stroke-width="8" stroke-linecap="round" stroke-linejoin="round"/>
  <path d="M70 19 82 9l-2 15 9 7-15 1-8 12-2-15-12-5 14-5Z" fill="#d6ff76"/>
</svg>
